<svg width="64" height="64" viewBox="0 0 64 64" fill="none" xmlns="http://www.w3.org/2000/svg">
<path d="M2 16H6.13867V38.4H10.2773V16H14.416V38.4H18.5547V16H22.6934V41.6H20.624V44.8H18.5547V48H16.4854V44.8H14.416V41.6H10.2773V44.8H8.20801V48H6.13867V44.8H4.06934V41.6H2V16Z" fill="#5DA0FF"/>
<path d="M24.7465 16H37.1626V19.2H39.2319V32H37.1626V35.2H39.2319V48H35.0932V38.4H28.8852V48H24.7465V16ZM35.0932 32V22.4H28.8852V32H35.0932Z" fill="#5DA0FF"/>
<path d="M41.3066 16H45.4453V38.4H49.584V16H53.7227V38.4H57.8613V16H62V41.6H59.9307V44.8H57.8613V48H55.792V44.8H53.7227V41.6H49.584V44.8H47.5146V48H45.4453V44.8H43.376V41.6H41.3066V16Z" fill="#5DA0FF"/>
</svg>
